<?xml version="1.0" encoding="iso-8859-1"?>
<!-- Generator: Adobe Illustrator 19.0.0, SVG Export Plug-In . SVG Version: 6.00 Build 0)  -->
<svg version="1.1" id="Capa_1" xmlns="http://www.w3.org/2000/svg" xmlns:xlink="http://www.w3.org/1999/xlink" x="0px" y="0px"
	 viewBox="0 0 512 512" style="enable-background:new 0 0 512 512;" xml:space="preserve">
<path style="fill:#E4DAD8;" d="M456,392H200V0h256c4.418,0,8,3.582,8,8v376C464,388.418,460.418,392,456,392z"/>
<g>
	<path style="fill:#CAB5B1;" d="M320,80h-64c-4.418,0-8-3.582-8-8s3.582-8,8-8h64c4.418,0,8,3.582,8,8S324.418,80,320,80z"/>
	<path style="fill:#CAB5B1;" d="M424,80h-72c-4.418,0-8-3.582-8-8s3.582-8,8-8h72c4.418,0,8,3.582,8,8S428.418,80,424,80z"/>
	<path style="fill:#CAB5B1;" d="M400,128h-96c-4.418,0-8-3.582-8-8s3.582-8,8-8h96c4.418,0,8,3.582,8,8S404.418,128,400,128z"/>
	<path style="fill:#CAB5B1;" d="M376,176h-72c-4.418,0-8-3.582-8-8s3.582-8,8-8h72c4.418,0,8,3.582,8,8S380.418,176,376,176z"/>
	<path style="fill:#CAB5B1;" d="M424,176h-24c-4.418,0-8-3.582-8-8s3.582-8,8-8h24c4.418,0,8,3.582,8,8S428.418,176,424,176z"/>
	<path style="fill:#CAB5B1;" d="M360,224h-56c-4.418,0-8-3.582-8-8s3.582-8,8-8h56c4.418,0,8,3.582,8,8S364.418,224,360,224z"/>
	<path style="fill:#CAB5B1;" d="M424,224h-40c-4.418,0-8-3.582-8-8s3.582-8,8-8h40c4.418,0,8,3.582,8,8S428.418,224,424,224z"/>
	<path style="fill:#CAB5B1;" d="M424,272H304c-4.418,0-8-3.582-8-8s3.582-8,8-8h120c4.418,0,8,3.582,8,8S428.418,272,424,272z"/>
	<path style="fill:#CAB5B1;" d="M336,328h-32c-4.418,0-8-3.582-8-8s3.582-8,8-8h32c4.418,0,8,3.582,8,8S340.418,328,336,328z"/>
	<path style="fill:#CAB5B1;" d="M424,328h-64c-4.418,0-8-3.582-8-8s3.582-8,8-8h64c4.418,0,8,3.582,8,8S428.418,328,424,328z"/>
</g>
<polygon style="fill:#D7C8C5;" points="304,120 200,0 200,504 304,392 "/>
<path style="fill:#F2EDEC;" d="M304,512H56c-4.418,0-8-3.582-8-8V128c0-4.418,3.582-8,8-8h248V512z"/>
<path style="fill:#E4DAD8;" d="M72,504V128c0-4.418,3.582-8,8-8H56c-4.418,0-8,3.582-8,8v376c0,4.418,3.582,8,8,8h24
	C75.582,512,72,508.418,72,504z"/>
<path style="fill:#55D4BE;" d="M304,216H48v-88c0-4.418,3.582-8,8-8h248V216z"/>
<path style="fill:#24BFB2;" d="M80,120H56c-4.418,0-8,3.582-8,8v88h24v-88C72,123.582,75.582,120,80,120z"/>
<g>
	<path style="fill:#F2EDEC;" d="M112,190c-3.313,0-6-2.687-6-6v-17.515l-5.758,5.757c-2.342,2.343-6.143,2.343-8.484,0L86,166.485
		V184c0,3.313-2.687,6-6,6s-6-2.687-6-6v-32c0-5.226,6.541-7.946,10.242-4.243L96,159.515l11.758-11.757
		C111.459,144.054,118,146.774,118,152v32C118,187.313,115.313,190,112,190z"/>
	<path style="fill:#F2EDEC;" d="M160,178h-18v-4h10c3.313,0,6-2.687,6-6s-2.687-6-6-6h-10v-4h18c3.313,0,6-2.687,6-6s-2.687-6-6-6
		h-24c-3.313,0-6,2.687-6,6v32c0,3.313,2.687,6,6,6h24c3.313,0,6-2.687,6-6S163.313,178,160,178z"/>
	<path style="fill:#F2EDEC;" d="M216.001,190c-1.562,0-3.096-0.609-4.243-1.757L190,166.485V184c0,3.313-2.687,6-6,6s-6-2.687-6-6
		v-32c0-5.226,6.541-7.946,10.242-4.243L210,169.515V152c0-3.313,2.687-6,6-6s6,2.687,6,6v32C222,187.267,219.273,190,216.001,190z"
		/>
	<path style="fill:#F2EDEC;" d="M272,190h-32c-3.313,0-6-2.687-6-6v-32c0-3.313,2.687-6,6-6s6,2.687,6,6v26h20v-26
		c0-3.313,2.687-6,6-6s6,2.687,6,6v32C278,187.313,275.313,190,272,190z"/>
</g>
<g>
	<path style="fill:#FAD000;" d="M160,429.719h-24.745l-7.646-23.534c-1.071-3.296-4.143-5.528-7.608-5.528s-6.537,2.232-7.608,5.528
		l-7.646,23.534H80c-3.466,0-6.537,2.232-7.608,5.528c-1.071,3.296,0.103,6.907,2.906,8.944l20.02,14.545L87.67,482.27
		c-1.071,3.296,0.103,6.907,2.906,8.944c2.805,2.037,6.602,2.037,9.404,0L120,476.67l20.02,14.544
		c2.991,2.172,7.201,1.976,9.979-0.461c2.377-2.085,3.309-5.476,2.332-8.484l-7.647-23.534l20.02-14.545
		c2.804-2.037,3.978-5.648,2.906-8.944C166.537,431.951,163.466,429.719,160,429.719z"/>
	<path style="fill:#FAD000;" d="M279.608,435.247c-1.071-3.296-4.143-5.528-7.608-5.528h-24.745l-7.646-23.534
		c-1.071-3.296-4.143-5.528-7.608-5.528s-6.537,2.232-7.608,5.528l-7.646,23.534H192c-3.466,0-6.537,2.232-7.608,5.528
		c-1.071,3.296,0.103,6.907,2.906,8.944l20.02,14.545l-7.647,23.534c-1.026,3.157,0.058,6.717,2.67,8.766
		c2.78,2.18,6.782,2.256,9.641,0.178L232,476.67l20.02,14.544c2.991,2.172,7.201,1.976,9.979-0.461
		c2.377-2.085,3.309-5.476,2.332-8.484l-7.647-23.534l20.02-14.545C279.506,442.154,280.68,438.543,279.608,435.247z"/>
</g>
<path style="fill:#E06B1D;" d="M264,240H88c-4.418,0-8,3.582-8,8v136c0,4.418,3.582,8,8,8h176c4.418,0,8-3.582,8-8V248
	C272,243.582,268.418,240,264,240z"/>
<rect x="96" y="256" style="fill:#FA892D;" width="160" height="120"/>
<g>
	<path style="fill:#FCC496;" d="M232,288H120c-4.418,0-8-3.582-8-8s3.582-8,8-8h112c4.418,0,8,3.582,8,8S236.418,288,232,288z"/>
	<path style="fill:#FCC496;" d="M184,328h-64c-4.418,0-8-3.582-8-8s3.582-8,8-8h64c4.418,0,8,3.582,8,8S188.418,328,184,328z"/>
	<path style="fill:#FCC496;" d="M232,328h-24c-4.418,0-8-3.582-8-8s3.582-8,8-8h24c4.418,0,8,3.582,8,8S236.418,328,232,328z"/>
	<path style="fill:#FCC496;" d="M208,360h-88c-4.418,0-8-3.582-8-8s3.582-8,8-8h88c4.418,0,8,3.582,8,8S212.418,360,208,360z"/>
</g>
<g>
</g>
<g>
</g>
<g>
</g>
<g>
</g>
<g>
</g>
<g>
</g>
<g>
</g>
<g>
</g>
<g>
</g>
<g>
</g>
<g>
</g>
<g>
</g>
<g>
</g>
<g>
</g>
<g>
</g>
</svg>
